<svg width="62" height="43" viewBox="0 0 62 43" fill="none" xmlns="http://www.w3.org/2000/svg">
<path d="M30.8028 0H31.1433C34.2883 0.0114779 50.2234 0.126257 54.52 1.2817C55.8189 1.63433 57.0025 2.32168 57.9525 3.27506C58.9025 4.22843 59.5857 5.41444 59.9337 6.71457C60.3201 8.16843 60.5918 10.0929 60.7754 12.0786L60.8137 12.4765L60.8979 13.4712L60.9285 13.8691C61.1772 17.366 61.2078 20.6411 61.2116 21.3565V21.6435C61.2078 22.3857 61.1733 25.8826 60.8979 29.525L60.8672 29.9267L60.8328 30.3246C60.6415 32.513 60.3584 34.6862 59.9337 36.2854C59.5867 37.5861 58.9039 38.7727 57.9537 39.7262C57.0035 40.6797 55.8194 41.3667 54.52 41.7183C50.0819 42.912 33.2132 42.9962 30.8755 43H30.3322C29.15 43 24.2604 42.977 19.1336 42.801L18.4832 42.7781L18.1504 42.7628L17.4961 42.736L16.8419 42.7092C12.5951 42.5218 8.55103 42.2195 6.68778 41.7145C5.38883 41.3632 4.20498 40.6768 3.25484 39.724C2.3047 38.7712 1.62162 37.5854 1.27405 36.2854C0.849364 34.69 0.566243 32.513 0.374944 30.3246L0.344337 29.9229L0.313729 29.525C0.124909 26.9325 0.0202771 24.3346 0 21.7353L0 21.2647C0.00765193 20.4421 0.0382596 17.5994 0.244862 14.4621L0.271643 14.0681L0.283121 13.8691L0.313729 13.4712L0.3979 12.4765L0.43616 12.0786C0.619806 10.0929 0.891449 8.16461 1.27787 6.71457C1.62486 5.41392 2.30768 4.22735 3.25786 3.27381C4.20804 2.32027 5.3922 1.63327 6.69161 1.2817C8.55485 0.784323 12.5989 0.478245 16.8457 0.286947L17.4961 0.260165L18.1542 0.23721L18.4832 0.225732L19.1375 0.198951C22.7787 0.0817789 26.4214 0.0167304 30.0644 0.00382614H30.8028V0ZM24.4862 12.2813V30.7148L40.3907 21.5019L24.4862 12.2813Z" fill="#FF2120"/>
</svg>
