<svg width="24" height="24" viewBox="0 0 24 24" fill="none" xmlns="http://www.w3.org/2000/svg">
<path d="M9 16C2.814 9.813 3.11 5.134 5.94 3.012L6.567 2.545C6.72698 2.4273 6.90897 2.34293 7.10217 2.2969C7.29537 2.25086 7.49585 2.24411 7.69172 2.27703C7.88758 2.30996 8.07483 2.38189 8.24237 2.48856C8.4099 2.59523 8.5543 2.73446 8.667 2.898L10.246 5.17C10.4573 5.47407 10.5487 5.84554 10.5025 6.21293C10.4563 6.58031 10.2759 6.91764 9.996 7.16L8.476 8.474C8.096 8.803 7.91 9.302 8.081 9.775C8.397 10.655 9.164 12.208 10.978 14.021C12.792 15.835 14.344 16.602 15.224 16.919C15.698 17.089 16.197 16.904 16.526 16.523L17.84 15.005C18.0824 14.7251 18.4197 14.5447 18.7871 14.4985C19.1545 14.4523 19.5259 14.5437 19.83 14.755L22.106 16.335C22.2694 16.4473 22.4085 16.5914 22.5152 16.7585C22.6218 16.9257 22.6938 17.1125 22.7268 17.308C22.7598 17.5036 22.7532 17.7037 22.7074 17.8966C22.6615 18.0895 22.5774 18.2712 22.46 18.431L21.99 19.064C19.869 21.892 15.188 22.187 9 16Z" fill="#FF2120"/>
</svg>
