<svg width="176" height="112" viewBox="0 0 176 112" fill="none" xmlns="http://www.w3.org/2000/svg">
<circle cx="8" cy="8" r="8" fill="#F8F8F8"/>
<circle cx="40" cy="8" r="8" fill="#F8F8F8"/>
<circle cx="72" cy="8" r="8" fill="#F8F8F8"/>
<circle cx="136" cy="8" r="8" fill="#F8F8F8"/>
<circle cx="104" cy="8" r="8" fill="#F8F8F8"/>
<circle cx="168" cy="8" r="8" fill="#F8F8F8"/>
<circle cx="8" cy="40" r="8" fill="#F8F8F8"/>
<circle cx="40" cy="40" r="8" fill="#F8F8F8"/>
<circle cx="72" cy="40" r="8" fill="#F8F8F8"/>
<circle cx="136" cy="40" r="8" fill="#F8F8F8"/>
<circle cx="104" cy="40" r="8" fill="#F8F8F8"/>
<circle cx="168" cy="40" r="8" fill="#F8F8F8"/>
<circle cx="8" cy="72" r="8" fill="#F8F8F8"/>
<circle cx="40" cy="72" r="8" fill="#F8F8F8"/>
<circle cx="72" cy="72" r="8" fill="#F8F8F8"/>
<circle cx="136" cy="72" r="8" fill="#F8F8F8"/>
<circle cx="104" cy="72" r="8" fill="#F8F8F8"/>
<circle cx="168" cy="72" r="8" fill="#F8F8F8"/>
<circle cx="8" cy="104" r="8" fill="#F8F8F8"/>
<circle cx="40" cy="104" r="8" fill="#F8F8F8"/>
<circle cx="72" cy="104" r="8" fill="#F8F8F8"/>
<circle cx="136" cy="104" r="8" fill="#F8F8F8"/>
<circle cx="104" cy="104" r="8" fill="#F8F8F8"/>
<circle cx="168" cy="104" r="8" fill="#F8F8F8"/>
</svg>
