<svg width="60" height="43" viewBox="0 0 60 43" fill="none" xmlns="http://www.w3.org/2000/svg">
<path d="M14.8509 43C10.7556 43 7.25622 41.5824 4.35265 38.7472C1.44909 35.9121 -0.00179843 32.4469 1.67296e-06 28.3516C1.67296e-06 24.8414 1.05756 21.7138 3.17269 18.9686C5.28781 16.2234 8.05547 14.4683 11.4757 13.7033C12.5107 10.0581 14.435 6.99791 17.2486 4.52276C20.0622 2.04762 23.3132 0.540031 27.0016 0V21.8038L22.6813 17.6185L18.9011 21.3987L29.7017 32.1994L40.5024 21.3987L36.7221 17.6185L32.4019 21.8038V0C37.0372 0.630037 40.8966 2.71186 43.9802 6.24546C47.0637 9.77907 48.6046 13.9301 48.6028 18.6986C51.708 19.0586 54.2849 20.3979 56.3334 22.7164C58.3819 25.035 59.4053 27.7459 59.4035 30.8493C59.4035 34.2245 58.2217 37.0939 55.8581 39.4574C53.4946 41.8209 50.6261 43.0018 47.2527 43H14.8509Z" fill="#FE2E2D"/>
</svg>
