<svg width="43" height="43" viewBox="0 0 43 43" fill="none" xmlns="http://www.w3.org/2000/svg">
<path fill-rule="evenodd" clip-rule="evenodd" d="M20.6988 1.9809C21.2031 1.7287 21.7969 1.7287 22.3012 1.9809L40.2179 10.9392C40.9611 11.3108 41.3513 12.1447 41.1603 12.9534C40.9695 13.7621 40.2476 14.3334 39.4167 14.3334H3.5833C2.75237 14.3334 2.03047 13.7621 1.83956 12.9534C1.64865 12.1447 2.03883 11.3108 2.78204 10.9392L20.6988 1.9809ZM11.1729 10.7501H31.827L21.5 5.58655L11.1729 10.7501ZM10.75 16.1251C11.7395 16.1251 12.5416 16.9272 12.5416 17.9167V26.8751C12.5416 27.8646 11.7395 28.6667 10.75 28.6667C9.76045 28.6667 8.9583 27.8646 8.9583 26.8751V17.9167C8.9583 16.9272 9.76045 16.1251 10.75 16.1251ZM17.9166 16.1251C18.9062 16.1251 19.7083 16.9272 19.7083 17.9167V26.8751C19.7083 27.8646 18.9062 28.6667 17.9166 28.6667C16.9271 28.6667 16.125 27.8646 16.125 26.8751V17.9167C16.125 16.9272 16.9271 16.1251 17.9166 16.1251ZM25.0833 16.1251C26.0729 16.1251 26.875 16.9272 26.875 17.9167V26.8751C26.875 27.8646 26.0729 28.6667 25.0833 28.6667C24.0938 28.6667 23.2917 27.8646 23.2917 26.8751V17.9167C23.2917 16.9272 24.0938 16.1251 25.0833 16.1251ZM32.25 16.1251C33.2395 16.1251 34.0417 16.9272 34.0417 17.9167V26.8751C34.0417 27.8646 33.2395 28.6667 32.25 28.6667C31.2605 28.6667 30.4583 27.8646 30.4583 26.8751V17.9167C30.4583 16.9272 31.2605 16.1251 32.25 16.1251ZM5.37497 32.2501C5.37497 31.2605 6.17712 30.4584 7.16664 30.4584H35.8333C36.8229 30.4584 37.625 31.2605 37.625 32.2501C37.625 33.2396 36.8229 34.0417 35.8333 34.0417H7.16664C6.17712 34.0417 5.37497 33.2396 5.37497 32.2501ZM1.79163 37.6251C1.79163 36.6355 2.59378 35.8334 3.5833 35.8334H39.4167C40.4062 35.8334 41.2083 36.6355 41.2083 37.6251C41.2083 38.6146 40.4062 39.4167 39.4167 39.4167H3.5833C2.59378 39.4167 1.79163 38.6146 1.79163 37.6251Z" fill="#FF2120"/>
</svg>
