<svg width="175" height="175" viewBox="0 0 175 175" fill="none" xmlns="http://www.w3.org/2000/svg">
<g clip-path="url(#clip0_197_3399)">
<path d="M14.5833 145.833C10.5729 145.833 7.13854 144.404 4.28021 141.546C1.42187 138.688 -0.00486399 135.256 -2.87905e-06 131.25H29.1667C25.1562 131.25 21.7219 129.821 18.8635 126.963C16.0052 124.104 14.5785 120.672 14.5833 116.667V36.4583C14.5833 32.4479 16.0125 29.0136 18.8708 26.1552C21.7292 23.2969 25.1611 21.8702 29.1667 21.875H145.833C149.844 21.875 153.278 23.3042 156.136 26.1625C158.995 29.0208 160.422 32.4528 160.417 36.4583V116.667C160.417 120.677 158.988 124.111 156.129 126.97C153.271 129.828 149.839 131.255 145.833 131.25H175C175 135.26 173.571 138.695 170.712 141.553C167.854 144.411 164.422 145.838 160.417 145.833H14.5833ZM87.5 138.542C89.566 138.542 91.299 137.842 92.699 136.442C94.099 135.042 94.7965 133.311 94.7917 131.25C94.7917 129.184 94.0917 127.451 92.6917 126.051C91.2917 124.651 89.5611 123.953 87.5 123.958C85.434 123.958 83.701 124.658 82.301 126.058C80.901 127.458 80.2035 129.189 80.2083 131.25C80.2083 133.316 80.9083 135.049 82.3083 136.449C83.7083 137.849 85.4389 138.547 87.5 138.542ZM29.1667 116.667H145.833V36.4583H29.1667V116.667Z" fill="#3F4350"/>
<path d="M89.6706 58H89.9654C92.6885 58.0099 106.486 58.1086 110.206 59.1029C111.331 59.4063 112.356 59.9977 113.178 60.8181C114.001 61.6384 114.592 62.6589 114.894 63.7776C115.228 65.0287 115.463 66.6846 115.622 68.3932L115.655 68.7356L115.728 69.5915L115.755 69.9339C115.97 72.9429 115.997 75.7609 116 76.3765V76.6235C115.997 77.2621 115.967 80.2711 115.728 83.4052L115.702 83.7509L115.672 84.0932C115.506 85.9763 115.261 87.8463 114.894 89.2224C114.593 90.3415 114.002 91.3625 113.179 92.183C112.356 93.0035 111.331 93.5946 110.206 93.8971C106.363 94.9243 91.7576 94.9967 89.7335 95H89.2631C88.2395 95 84.0059 94.9802 79.5668 94.8288L79.0037 94.8091L78.7155 94.7959L78.149 94.7728L77.5825 94.7498C73.9054 94.5885 70.4039 94.3284 68.7906 93.8939C67.6659 93.5916 66.6409 93.001 65.8182 92.1811C64.9955 91.3612 64.4041 90.3409 64.1031 89.2224C63.7354 87.8495 63.4903 85.9763 63.3246 84.0932L63.2981 83.7476L63.2716 83.4052C63.1082 81.1745 63.0176 78.939 63 76.7025L63 76.2975C63.0066 75.5897 63.0331 73.1437 63.212 70.4442L63.2352 70.1051L63.2451 69.9339L63.2716 69.5915L63.3445 68.7356L63.3776 68.3932C63.5367 66.6846 63.7719 65.0254 64.1064 63.7776C64.4069 62.6585 64.9981 61.6375 65.8208 60.817C66.6435 59.9965 67.6688 59.4054 68.7939 59.1029C70.4072 58.6749 73.9087 58.4115 77.5858 58.2469L78.149 58.2239L78.7188 58.2041L79.0037 58.1942L79.5702 58.1712C82.7229 58.0704 85.8769 58.0144 89.0313 58.0033H89.6706V58ZM84.2013 68.5677V84.429L97.9723 76.5016L84.2013 68.5677Z" fill="#FF2120"/>
</g>
<defs>
<clipPath id="clip0_197_3399">
<rect width="175" height="175" fill="white"/>
</clipPath>
</defs>
</svg>
