<svg width="43" height="43" viewBox="0 0 43 43" fill="none" xmlns="http://www.w3.org/2000/svg">
<g clip-path="url(#clip0_197_3386)">
<path d="M31.6407 8.05011C31.6407 7.72136 31.3785 7.45239 31.0498 7.45239H15.4957C15.1697 7.45239 14.9061 7.72136 14.9061 8.05011V11.9882C15.2593 12.3305 15.5623 12.7462 15.7619 13.276L15.9277 13.1578C15.9766 13.1103 16.0323 13.0763 16.0853 13.0369V8.64918H30.4616V19.0765H16.0853V17.9531L14.9075 18.76V19.677C14.9075 20.0071 15.171 20.276 15.497 20.276C15.497 20.276 29.1955 20.276 30.4494 20.276C31.7059 20.276 31.6421 19.5574 31.6421 19.5574L31.6407 8.05011Z" fill="#FE2E2D"/>
<path d="M9.25231 11.1691C10.626 11.1691 11.7396 10.0373 11.7396 8.64109C11.7396 7.24489 10.626 6.11304 9.25231 6.11304C7.87862 6.11304 6.76501 7.24489 6.76501 8.64109C6.76501 10.0373 7.87862 11.1691 9.25231 11.1691Z" fill="#FE2E2D"/>
<path d="M41.1973 33.5507L38.7467 31.2957L38.3854 30.9629L36.7281 29.4414C34.7461 27.6143 32.54 28.3289 30.5051 30.0948L30.4847 30.1125L30.3665 30.2497C30.1111 30.2035 29.6098 30.0677 29.3028 29.6533C28.9945 29.2336 28.9415 28.6169 29.1425 27.814C29.2268 27.4771 29.2838 27.1756 29.3137 26.9093H32.9978C34.2992 26.9093 35.3492 25.8293 35.3492 24.4981V2.40579C35.3492 1.07452 34.2992 0 32.9978 0H2.40576C1.10438 0 0.0502319 1.07452 0.0502319 2.40579V24.4967C0.0502319 25.828 1.10438 26.9079 2.40576 26.9079H14.144C14.144 26.9079 14.6534 31.729 10.5849 31.729V34.1403H14.144H21.2568H24.8186V31.729C20.5925 31.729 21.2568 26.9079 21.2568 26.9079H28.5693C28.5421 27.1049 28.5014 27.3331 28.428 27.6266C28.1699 28.659 28.2636 29.4903 28.7119 30.0989C29.0271 30.5282 29.4577 30.7564 29.8163 30.88L29.5501 31.187L29.5175 31.2278C28.0735 33.4461 27.3467 35.4484 29.2865 37.2348L31.2114 39.0062L31.5959 39.3594L34.0288 41.5994C36.2119 43.6072 39.5971 43.4374 41.5723 41.215C43.5488 38.9994 43.3803 35.5598 41.1973 33.5507ZM6.04909 21.1862H5.31418V14.9605H6.05045L6.04909 21.1862ZM17.8594 25.4096C17.0701 25.4096 16.4303 24.7603 16.4303 23.9588C16.4303 23.1546 17.0715 22.5066 17.8594 22.5066C18.65 22.5066 19.2884 23.1559 19.2884 23.9588C19.2884 24.7616 18.6486 25.4096 17.8594 25.4096ZM12.5628 21.1862L12.5614 14.932H13.2692V16.8895C13.2692 16.8922 13.2692 16.8976 13.2692 16.9003C13.2692 17.5089 13.7569 18.0061 14.3546 18.0061C14.5325 18.0061 14.6915 17.9518 14.8409 17.877L14.845 17.8825L16.7223 16.6028L17.7113 15.9304L18.419 15.4495C18.419 15.4441 18.4204 15.4441 18.4231 15.4441C18.7817 15.08 18.8483 14.5353 18.6242 14.1101L22.4685 11.4584L21.3994 14.8477H22.4359L22.91 13.2624H24.6475L25.1447 14.8477H26.2301L26.1132 14.481C26.3238 14.7499 26.6566 14.9401 27.1035 14.9401C27.6265 14.9401 28.0422 14.7146 28.2786 14.4008H28.303L28.3764 14.8477H29.2825C29.2322 14.5991 29.2173 14.2419 29.2173 13.8778V12.4256C29.2173 11.5413 28.8491 10.7181 27.5763 10.7181C26.9487 10.7181 26.4352 10.892 26.1404 11.074L26.3374 11.7369C26.605 11.563 27.0152 11.4394 27.4065 11.4394C28.1074 11.4394 28.2134 11.8768 28.2134 12.1417V12.2096C26.768 12.2001 25.8891 12.7095 25.8606 13.6903L24.4437 9.25504H23.1627L22.6995 10.7303L18.3226 13.7515C18.1406 13.6143 17.93 13.5423 17.7126 13.5341C17.4111 13.5219 17.1027 13.6265 16.8718 13.8642C16.8718 13.8642 16.8677 13.8697 16.865 13.8697L16.7237 13.9702L15.4441 14.8572V14.481C15.2063 11.6092 11.9298 11.6527 11.9298 11.6527H10.5143L9.32021 13.6482L8.12207 11.6527H6.75956C3.30641 11.6527 3.28196 14.14 3.28196 15.08L3.2806 21.1848H2.57285V2.56201H32.8321V21.1862H12.5628ZM23.6816 10.388C23.7088 10.2793 23.736 10.1706 23.7604 10.0701H23.7767C23.8596 10.3934 23.9479 10.7751 24.0552 11.1161L24.4858 12.4936H23.0744L23.4982 11.1161C23.5363 10.9748 23.5743 10.82 23.6123 10.6665L23.8378 10.5157L23.6816 10.388ZM26.8522 13.6265C26.8522 13.0152 27.5301 12.8631 28.2392 12.8726V13.4282C28.2392 13.5029 28.2392 13.5762 28.2147 13.6509C28.1169 13.943 27.8303 14.2065 27.4228 14.2065C27.1049 14.2079 26.8522 14.0259 26.8522 13.6265ZM29.7837 36.6778C28.1183 35.1496 28.8926 33.5711 30.122 31.6652L31.0077 30.6504C32.7587 29.1466 34.5315 28.4348 36.2336 29.9997L37.9113 31.5443C37.4997 32.934 36.7634 34.234 35.7201 35.405C34.3195 36.9794 32.6921 37.9656 31.7236 38.4628L29.7837 36.6778ZM41.0248 40.7137C39.3213 42.6237 36.4075 42.7731 34.5274 41.0425L32.4952 39.1719C34.094 38.2726 35.4511 37.2022 36.5324 35.9905C37.7971 34.5695 38.4383 33.2233 38.7603 32.3227L40.7015 34.1077C42.5802 35.837 42.7269 38.7997 41.0248 40.7137Z" fill="#FE2E2D"/>
<path d="M32.9013 31.5553C32.4001 31.092 31.6203 31.1328 31.1652 31.6422C30.7102 32.1543 30.7482 32.9449 31.2522 33.4055L32.9964 35.0152C33.499 35.4771 34.2788 35.4377 34.7339 34.9283C35.1889 34.4161 35.1495 33.6228 34.6483 33.1609L32.9013 31.5553ZM34.185 34.4216C34.0044 34.6267 33.6933 34.6389 33.4922 34.4555L31.748 32.8512C31.5483 32.6651 31.5334 32.3472 31.714 32.1448C31.8961 31.9438 32.2058 31.9248 32.4055 32.1122L34.1511 33.7179C34.3508 33.9026 34.3657 34.2164 34.185 34.4216Z" fill="#FE2E2D"/>
</g>
<defs>
<clipPath id="clip0_197_3386">
<rect width="43" height="43" fill="white"/>
</clipPath>
</defs>
</svg>
