<svg width="58" height="43" viewBox="0 0 58 43" fill="none" xmlns="http://www.w3.org/2000/svg">
<path d="M40.1332 37.2667V43H0V37.2667C0 37.2667 0 25.8001 20.0666 25.8001C40.1332 25.8001 40.1332 37.2667 40.1332 37.2667ZM30.0999 10.0334C30.0999 8.04905 29.5115 6.10921 28.409 4.45925C27.3065 2.80928 25.7395 1.52329 23.9062 0.763891C22.0728 0.00449395 20.0555 -0.194199 18.1092 0.192938C16.1629 0.580075 14.3752 1.53565 12.972 2.93884C11.5688 4.34202 10.6132 6.12978 10.2261 8.07605C9.83895 10.0223 10.0376 12.0397 10.797 13.873C11.5564 15.7064 12.8424 17.2734 14.4924 18.3758C16.1424 19.4783 18.0822 20.0667 20.0666 20.0667C22.7276 20.0667 25.2796 19.0097 27.1612 17.1281C29.0428 15.2465 30.0999 12.6944 30.0999 10.0334ZM39.9612 25.8001C41.7235 27.1639 43.1655 28.8973 44.1857 30.8784C45.206 32.8594 45.7797 35.04 45.8665 37.2667V43H57.3331V37.2667C57.3331 37.2667 57.3331 26.8607 39.9612 25.8001ZM37.2665 0.000150726C35.2934 -0.0108364 33.3636 0.579088 31.7339 1.69148C33.4752 4.12451 34.4115 7.04148 34.4115 10.0334C34.4115 13.0254 33.4752 15.9424 31.7339 18.3754C33.3636 19.4878 35.2934 20.0777 37.2665 20.0667C39.9275 20.0667 42.4795 19.0097 44.3612 17.1281C46.2428 15.2465 47.2998 12.6944 47.2998 10.0334C47.2998 7.37245 46.2428 4.82044 44.3612 2.93884C42.4795 1.05723 39.9275 0.000150726 37.2665 0.000150726Z" fill="#FF2120"/>
</svg>
