<svg width="45" height="43" viewBox="0 0 45 43" fill="none" xmlns="http://www.w3.org/2000/svg">
<path d="M22.5 0C18.1054 0 14.1151 0.36035 11.3201 0.914188C10.2302 1.13253 9.38645 1.3846 8.73604 1.62601C9.38645 1.86743 10.2302 2.1195 11.3201 2.33784C14.1151 2.89168 18.1054 3.25203 22.5 3.25203C26.8946 3.25203 30.8849 2.89168 33.6799 2.33784C34.7698 2.1195 35.6136 1.86743 36.264 1.62601C35.6136 1.3846 34.7698 1.13253 33.6799 0.914188C30.8849 0.36035 26.8946 0 22.5 0ZM4.78088 0.94259C1.42339 2.52245 -0.387197 5.56146 0.0698435 8.58982C0.421413 10.7768 1.9859 12.7631 4.46447 13.7945C5.88832 14.398 7.61102 14.7175 9.63255 14.6998C11.9705 19.0843 15.1346 22.7056 18.5273 24.392V32.1848C15.5389 34.0131 13.5525 37.8119 11.6013 41.7172C18.4218 43.4745 26.5958 43.3858 33.3811 41.6994C31.4475 37.7941 29.4435 34.0131 26.4727 32.1848V24.392C29.8654 22.7056 33.0295 19.0843 35.3675 14.6998C37.389 14.7175 39.1117 14.398 40.5355 13.7945C43.0141 12.7631 44.5786 10.7768 44.9302 8.58982C45.3872 5.56146 43.5766 2.52245 40.2191 0.94259C40.2894 1.1556 40.3246 1.38282 40.3246 1.62601C40.3246 2.39819 39.9203 3.03013 39.4984 3.42776C39.0941 3.82539 38.6371 4.08988 38.1273 4.32953C37.1077 4.80881 35.8245 5.16738 34.2776 5.4727C31.2014 6.0869 27.0704 6.44725 22.5 6.44725C17.9296 6.44725 13.7986 6.0869 10.7224 5.4727C9.1755 5.16738 7.89227 4.80881 6.87272 4.32953C6.36295 4.08988 5.9059 3.82539 5.5016 3.42776C5.07972 3.03013 4.67541 2.39819 4.67541 1.62601C4.67541 1.38282 4.71057 1.1556 4.78088 0.94259ZM5.94106 3.83782C6.34537 6.38334 7.08366 8.9697 8.10322 11.4247C7.11882 11.3271 6.32779 11.1211 5.67738 10.8496C4.02501 10.1573 3.35702 9.14011 3.19882 8.09634C2.98787 6.68866 3.77891 4.87449 5.94106 3.83782ZM39.0589 3.83782C41.2211 4.87449 42.0121 6.68866 41.8012 8.09634C41.643 9.14011 40.975 10.1573 39.3226 10.8496C38.6722 11.1211 37.8812 11.3271 36.8968 11.4247C37.9163 8.9697 38.6546 6.38334 39.0589 3.83782Z" fill="#FF2120"/>
</svg>
