<svg width="22" height="22" viewBox="0 0 22 22" fill="none" xmlns="http://www.w3.org/2000/svg">
<path d="M5.76753 18.908L6.12429 19.0864C7.61078 19.9783 9.27564 20.3945 10.9405 20.3945C16.1729 20.3945 20.454 16.1134 20.454 10.881C20.454 8.38371 19.4432 5.94587 17.6594 4.16209C15.8756 2.3783 13.4973 1.36749 10.9405 1.36749C5.70807 1.36749 1.42699 5.64857 1.48645 10.9405C1.48645 12.7242 2.02159 14.4486 2.91348 15.9351L3.15132 16.2918L2.19997 19.7999L5.76753 18.908Z" fill="#00E676"/>
<path d="M18.6703 3.21081C16.6486 1.12973 13.8541 0 11 0C4.93513 0 0.0594595 4.93513 0.118919 10.9405C0.118919 12.8432 0.654054 14.6865 1.54595 16.3514L0 22L5.76757 20.5135C7.37297 21.4054 9.15676 21.8216 10.9405 21.8216C16.9459 21.8216 21.8216 16.8865 21.8216 10.8811C21.8216 7.96757 20.6919 5.23243 18.6703 3.21081ZM11 19.9784C9.39459 19.9784 7.78919 19.5622 6.42162 18.7297L6.06487 18.5514L2.61622 19.4432L3.50811 16.0541L3.27027 15.6973C0.654054 11.4757 1.9027 5.88649 6.18378 3.27027C10.4649 0.654054 15.9946 1.9027 18.6108 6.18378C21.227 10.4649 19.9784 15.9946 15.6973 18.6108C14.3297 19.5027 12.6649 19.9784 11 19.9784ZM16.2324 13.3784L15.5784 13.0811C15.5784 13.0811 14.627 12.6649 14.0324 12.3676C13.973 12.3676 13.9135 12.3081 13.8541 12.3081C13.6757 12.3081 13.5568 12.3676 13.4378 12.427C13.4378 12.427 13.3784 12.4865 12.5459 13.4378C12.4865 13.5568 12.3676 13.6162 12.2486 13.6162H12.1892C12.1297 13.6162 12.0108 13.5568 11.9514 13.4973L11.6541 13.3784C11 13.0811 10.4054 12.7243 9.92973 12.2486C9.81081 12.1297 9.63243 12.0108 9.51351 11.8919C9.0973 11.4757 8.68108 11 8.38378 10.4649L8.32432 10.3459C8.26486 10.2865 8.26486 10.227 8.20541 10.1081C8.20541 9.98919 8.20541 9.87027 8.26486 9.81081C8.26486 9.81081 8.5027 9.51351 8.68108 9.33514C8.8 9.21622 8.85946 9.03784 8.97838 8.91892C9.0973 8.74054 9.15676 8.5027 9.0973 8.32432C9.03784 8.02703 8.32432 6.42162 8.14595 6.06487C8.02703 5.88649 7.90811 5.82703 7.72973 5.76757H7.55135C7.43243 5.76757 7.25405 5.76757 7.07568 5.76757C6.95676 5.76757 6.83784 5.82703 6.71892 5.82703L6.65946 5.88649C6.54054 5.94595 6.42162 6.06486 6.3027 6.12432C6.18378 6.24324 6.12432 6.36216 6.00541 6.48108C5.58919 7.01622 5.35135 7.67027 5.35135 8.32432C5.35135 8.8 5.47027 9.27568 5.64865 9.69189L5.70811 9.87027C6.24324 11 6.95676 12.0108 7.90811 12.9027L8.14595 13.1405C8.32432 13.3189 8.5027 13.4378 8.62162 13.6162C9.87027 14.6865 11.2973 15.4595 12.9027 15.8757C13.0811 15.9351 13.3189 15.9351 13.4973 15.9946C13.6757 15.9946 13.9135 15.9946 14.0919 15.9946C14.3892 15.9946 14.7459 15.8757 14.9838 15.7568C15.1622 15.6378 15.2811 15.6378 15.4 15.5189L15.5189 15.4C15.6378 15.2811 15.7568 15.2216 15.8757 15.1027C15.9946 14.9838 16.1135 14.8649 16.173 14.7459C16.2919 14.5081 16.3514 14.2108 16.4108 13.9135C16.4108 13.7946 16.4108 13.6162 16.4108 13.4973C16.4108 13.4973 16.3514 13.4378 16.2324 13.3784Z" fill="white"/>
</svg>
